# xmcd
#
# Track frame offsets:
#	150
#	14568
#	25217
#	40408
#
# Disc length: 711 seconds
#
# Revision: 2
# Processed by: cddbd v1.5.2PL0 Copyright (c) Steve Scherf et al.
# Submitted via: EasyCDDAExtractor 9.0.0.1
#
DISCID=2c02c504
DTITLE=Krysia Mazur - Promo
DYEAR=2012
DGENRE=Country
TTITLE0=Chcê góry przenosiæ
TTITLE1=Love Every Time
TTITLE2=Today I Started Loving You Again
TTITLE3=Porushka-Paranya
EXTD=Digipak.\\r\nCRESCD201
EXTT0=
EXTT1=
EXTT2=
EXTT3=
PLAYORDER=
